<?xml version="1.0" standalone="no"?>
<svg width="1403px" height="1280px" viewBox="0 0 1403 1280" version="1.1" xmlns="http://www.w3.org/2000/svg" xmlns:xlink="http://www.w3.org/1999/xlink">
    <!-- Generator: Sketch 63.1 (92452) - https://sketch.com -->
    <title>shopping-man</title>
    <desc>Created by Webpixels.</desc>
    <g id="Page-1" stroke="none" stroke-width="1" fill="none" fill-rule="evenodd">
        <g id="shopping-man">
            <path d="M13,295.2 C-12.9,223.7 1.2,127.7 56.1,86.6 C102.4,51.9 167.3,64 237.5,84.3 C541.5,172.5 581.8,311.8 729.6,320.1 C957.6,333 1051.4,12.2 1219.4,52.5 C1349.7,83.8 1446,313.4 1382.7,417.6 C1318.8,522.7 1128.2,440.7 886.1,571.8 C764.6,637.6 787.4,689.4 675.2,744.1 C492.5,833.3 244.4,814 189.9,710.1 C154.1,641.8 230.8,591.7 194.4,494.7 C155.8,391.5 51.5,401.4 13,295.2 Z" id="Path" fill="#F1F2F7" fill-rule="nonzero"></path>
            <path d="M352.3,1094.7 L337.8,542.9 C337.7,540.7 339.5,538.9 341.7,538.796025 C343.9,538.7 345.7,540.5 345.8,542.7 L360.3,1094.5 L352.3,1094.7 Z" id="Path" fill="#CED5E5" fill-rule="nonzero"></path>
            <path d="M341.9,546.8 C341.9,546.8 286.3,520 269.9,474.2 C254.3,430.8 255.3,410.7 265.6,404.5 C275.8,398.3 314.7,446.1 327.6,475.7 C340.3,505.2 341.9,546.8 341.9,546.8 Z" id="Path" fill="#52CB96" fill-rule="nonzero"></path>
            <path d="M341.9,546.8 C341.9,546.8 301.6,422.8 306.2,348.6 C310.7,274.3 308.5,248.8 327.7,244.3 C347,239.8 358.3,326.5 356,374.1 C353.8,421.7 341.9,546.8 341.9,546.8 Z" id="Path" fill="#37B37F" fill-rule="nonzero"></path>
            <path d="M341.9,546.8 C341.9,546.8 335.1,453.6 360,403.9 C384.9,354.2 405.9,321.9 425.8,328.1 C445.6,334.3 414.5,416.5 398.6,450 C382.7,483.5 341.9,546.8 341.9,546.8 Z" id="Path" fill="#52CB96" fill-rule="nonzero"></path>
            <path d="M979.1,703.4 C979.1,703.4 987.3,632 1010.8,622.9 C1034.3,613.8 1050.8,611.5 1056.4,618 C1061.9,624.4 1078.9,655.8 1066.8,707.2" id="Path" stroke="#FEAC00" stroke-width="5"></path>
            <path d="M1106.9,663.7 C1106.9,663.7 1063.3,600.3 1040.3,608.5 C1029.7,612.3 1009.6,618.6 1003.2,628.3 C995.8,639.6 1000.8,658.9 1036.4,697.4" id="Path" stroke="#FF562F" stroke-width="5" stroke-linecap="round" stroke-linejoin="round"></path>
            <path d="M375.5,707.9 C375.5,707.9 349.9,634.6 367.6,616.4 C385.3,598.2 425.4,623.6 438.7,638.3 C451.9,653 465.9,711.2 465.9,711.2" id="Path" stroke="#5900CC" stroke-width="5"></path>
            <path d="M296.9,677.3 C296.9,677.3 353.6,597.2 377.4,607.8 C391.2,613.9 405.6,618.1 415.3,620.5 C424.1,622.7 430.6,630.5 430.8,639.6 C431,644.9 430,650.8 426.5,656.2 C417.1,670.9 377.9,706.8 377.9,706.8" id="Path" stroke="#8B34FF" stroke-width="5"></path>
            <path d="M1149.7,1099.4 L1114.8,523.7 C1114.7,521.5 1116.3,519.6 1118.6,519.495562 C1120.8,519.4 1122.7,521 1122.8,523.3 L1157.7,1099 L1149.7,1099.4 Z" id="Path" fill="#CED5E5" fill-rule="nonzero"></path>
            <path d="M403.8,575.1 C403.8,575.1 390.7,588 382.2,603.2 C373.8,618.4 371.4,626.8 375.9,633.1 C380.4,639.4 383.5,630.5 383.5,630.5 C383.5,630.5 382,637.6 394.8,639.8 C394.8,639.8 400.4,650.4 408.4,642.8 C408.4,642.8 415.3,649.5 422.9,643.4 C430.5,637.3 425.9,629.8 422.9,629.1 C419.9,628.4 417.5,632.1 417.5,636.9 C417.5,636.9 417.1,622.8 421.8,611.4 C421.8,611.4 428.3,618.9 431.3,626.9 C434.3,634.9 439.1,635.3 440.8,631.2 C442.5,627.1 435.2,603.7 429.3,595.7 L427.9,587.3 L403.8,575.1 Z" id="Path" fill="#FFDFD7" fill-rule="nonzero"></path>
            <path d="M1026.2,578 C1026.2,578 1039.3,590.9 1047.8,606.1 C1056.2,621.3 1058.6,629.7 1054.1,636 C1049.6,642.3 1046.5,633.4 1046.5,633.4 C1046.5,633.4 1048,640.5 1035.2,642.7 C1035.2,642.7 1029.6,653.3 1021.6,645.7 C1021.6,645.7 1014.7,652.4 1007.1,646.3 C999.5,640.2 1004.1,632.7 1007.1,632 C1010.1,631.3 1012.5,635 1012.5,639.8 C1012.5,639.8 1012.9,625.7 1008.2,614.3 C1008.2,614.3 1001.7,621.8 998.7,629.8 C995.7,637.8 990.9,638.2 989.2,634.1 C987.5,630 994.8,606.6 1000.7,598.6 L1002.1,590.2 L1026.2,578 Z" id="Path" fill="#FFDFD7" fill-rule="nonzero"></path>
            <path d="M634.3,1175.5 C634.3,1175.5 634,1192.8 621.5,1208.3 C609,1223.8 553.1,1230.6 545.2,1267.3 C545.2,1267.3 557.6,1275.2 589.8,1264.3 C622,1253.3 637.4,1250.3 652.2,1241.2 C658.3,1237.5 658.2,1225.2 659.9,1213.3 C662.4,1196.3 665.3,1179 665.3,1179 L634.3,1175.5 Z" id="Path" fill="#283444" fill-rule="nonzero"></path>
            <path d="M872,1183 C872,1183 872.3,1221.9 872,1227.6 C871.7,1233.3 873.2,1239.3 887.2,1242.7 C901.2,1246.1 997.2,1279.5 997.2,1279.5 C997.2,1279.5 1000.2,1252.1 981.7,1238.9 C963.2,1225.7 925,1218.2 917.3,1207.3 C905.7,1190.9 903.5,1174.9 903.5,1174.9 L872,1183 Z" id="Path" fill="#283444" fill-rule="nonzero"></path>
            <path d="M652.9,596.9 C652.9,596.9 619.7,763.2 615.4,873.8 C611.1,984.4 620.5,1174 620.5,1174 L676.7,1180.4 C676.7,1180.4 693.6,919.7 704.7,858.5 C715.8,797.3 731.6,661.2 731.6,661.2 C731.6,661.2 775.3,868.7 790.6,934.2 C805.9,999.7 857.8,1186.8 857.8,1186.8 L917.3,1171.5 C917.3,1171.5 878.2,919.8 862.9,839.8 C847.6,759.9 811.9,590.5 811.9,590.5 L712.6,583.3 L661.6,588.4 L652.9,596.9 Z" id="Path" fill="#CED5E5" fill-rule="nonzero"></path>
            <path d="M725.4,209.9 L741.8,154.6 L763.3,154.6 L769.3,215.3 C769.3,215.3 760.2,231.7 745.8,232 C731.4,232.3 725.4,209.9 725.4,209.9 Z" id="Path" fill="#FFDFD7" fill-rule="nonzero"></path>
            <path d="M798.7,79.2 C795.9,76 792.2,80 790.3,82.5 C791.1,60.1 789.7,38.5 781.5,36.7 C764.8,33 726.8,34.7 719.3,39.8 C715.4,42.5 714.3,63 714.4,84.3 L714.4,84.3 C714.4,84.3 708.8,74.7 704.8,79.2 C700.8,83.7 702.3,110.7 715.4,114.5 L715.4,114.5 C715.8,122 716.3,128.1 716.8,131.6 C719.1,147.5 729.3,155.1 729.3,155.1 C739.5,161.3 762.2,161.1 771.3,158.5 C780.4,155.9 784.9,140.1 785.8,133.6 C786,131.9 787,124.4 788,114.3 L788.1,114.5 C801.2,110.8 802.6,83.7 798.7,79.2 Z" id="Path" fill="#FFDFD7" fill-rule="nonzero"></path>
            <path d="M714.5,99.6 C714.5,99.6 707,65.8 707,47.4 C707,29 710.4,25.1 719.4,24 C728.4,22.9 729.7,27.4 729.7,27.4 C729.7,27.4 724.4,16.4 729.7,14.7 C735,13 743.9,14.5 746.7,18.9 C746.7,18.9 748.2,11.9 753.9,11.5 C759.6,11.1 760.7,21.1 767.1,21.9 C773.5,22.7 776.5,14.3 784.3,17.6 C792,20.8 803.6,32.3 801.7,50.9 C799.8,69.5 791.5,97.5 791.5,97.5 C791.5,97.5 790.7,57.9 784.1,51.8 C777.5,45.7 774.8,45.4 770.3,45.9 C765.8,46.4 760.9,46.1 759.5,53.3 C758.2,60.5 755.1,59.2 752.5,59.2 C749.9,59.2 747.8,53.5 745.3,49.6 C742.8,45.6 730.9,45.7 726.8,48.7 C717.2,55.6 720.1,77.5 714.5,99.6 Z" id="Path" fill="#283444" fill-rule="nonzero"></path>
            <path d="M650.8,564.5 L648,597.6 C648,597.6 694.9,590.6 707.7,591.9 C720.6,593.2 804.5,593.6 812.6,590.2 L815.2,562.8 L650.8,564.5 Z" id="Path" fill="#FE8163" fill-rule="nonzero"></path>
            <path d="M398.6,573.6 C398.6,573.6 506.3,371.8 608.4,277.4 C667.6,222.6 726.3,207 726.3,207 C726.3,207 730.4,220.2 750.1,219.7 C769.8,219.1 768.7,208.4 768.7,208.4 C768.7,208.4 800.9,228.6 839.1,257.9 C896.1,301.6 995.4,498.3 1033.9,576.6 L995.5,595.1 C995.5,595.1 902,400.2 813.5,315.2 L828,573.7 C828,573.7 811,566 790.6,566 C770.2,566 681.2,584.7 640.1,568.8 L659.5,308.8 C659.5,308.8 556.2,402.4 531.2,442.7 C506.3,482.9 438.8,594 438.8,594 L398.6,573.6 Z" id="Path" fill="#FE8163" fill-rule="nonzero"></path>
            <polygon id="Path" fill="#FE8163" fill-rule="nonzero" points="995.5 711.3 1160.5 633 1285.5 866.1 1121.4 946"></polygon>
            <polygon id="Path" fill="#5900CC" fill-rule="nonzero" points="247.7 654.1 137.2 906.9 311.8 971.6 402.5 710.8"></polygon>
            <polygon id="Path" fill="#8B34FF" fill-rule="nonzero" points="307.8 703.4 566.9 703.4 572.6 965.3 299.9 976.1"></polygon>
            <polygon id="Path" fill="#FFC933" fill-rule="nonzero" points="931.7 701.1 917.3 950.3 1142.6 950.3 1123.9 701.1"></polygon>
            <path d="M1118.8,527.4 C1118.8,527.4 1033.8,447.5 995.5,360.7 C957.2,273.9 941.1,214.2 964,197.3 C987,180.4 1035.4,291 1053.3,332.7 C1071.2,374.4 1118.8,527.4 1118.8,527.4 Z" id="Path" fill="#52CB96" fill-rule="nonzero"></path>
            <path d="M1118.8,527.4 C1118.8,527.4 1091.6,380.3 1078.8,269.7 C1066,159.1 1074.5,6 1105.2,1 C1135.8,-4 1138.4,106.4 1140.5,154.1 C1142.6,201.7 1118.8,527.4 1118.8,527.4 Z" id="Path" fill="#37B37F" fill-rule="nonzero"></path>
            <path d="M1118.8,527.4 C1118.8,527.4 1138.4,376 1197.9,279.1 C1257.4,182.2 1269.3,206.8 1277.8,214.5 C1286.3,222.2 1254,334.4 1214,388.8 C1174.1,443.2 1118.8,527.4 1118.8,527.4 Z" id="Path" fill="#52CB96" fill-rule="nonzero"></path>
            <line x1="249.5" y1="1094.6" x2="463.2" y2="1094.6" id="Path" stroke="#CED5E5" stroke-width="3" stroke-linecap="round" stroke-linejoin="round"></line>
            <line x1="1056.3" y1="1099.4" x2="1270.1" y2="1099.4" id="Path" stroke="#CED5E5" stroke-width="3" stroke-linecap="round" stroke-linejoin="round"></line>
            <path d="M828,573.6 C828,573.6 811,565.9 790.6,565.9 C770.2,565.9 681.2,584.6 640.1,568.7" id="Path" stroke="#FF562F" stroke-width="3" stroke-linecap="round" stroke-linejoin="round"></path>
            <line x1="406.7" y1="558.8" x2="450.3" y2="575.1" id="Path" stroke="#FF562F" stroke-width="3" stroke-linecap="round" stroke-linejoin="round"></line>
            <line x1="985.7" y1="575.1" x2="1025.1" y2="558.6" id="Path" stroke="#FF562F" stroke-width="3" stroke-linecap="round" stroke-linejoin="round"></line>
        </g>
    </g>
</svg>